<?xml version="1.0" encoding="UTF-8" standalone="no"?><!DOCTYPE svg PUBLIC "-//W3C//DTD SVG 1.1//EN" "http://www.w3.org/Graphics/SVG/1.1/DTD/svg11.dtd"><svg width="100%" height="100%" viewBox="0 0 3943 1186" version="1.1" xmlns="http://www.w3.org/2000/svg" xmlns:xlink="http://www.w3.org/1999/xlink" xml:space="preserve" xmlns:serif="http://www.serif.com/" style="fill-rule:evenodd;clip-rule:evenodd;stroke-linejoin:round;stroke-miterlimit:2;"><g><path d="M502.806,405.962c21.08,-60.21 45.16,-165.576 45.16,-165.576l3.01,0c-0,0 22.58,105.366 42.14,165.576l51.08,154.03c59.02,-15.66 116.85,-26.95 171.51,-35.04l-165.39,-469.711l-203.201,0l-262.109,744.381c73.433,-67.55 155.56,-119.85 240.4,-160.23l77.4,-233.43Z" style="fill:url(#_Linear1);"/><path d="M482.646,105.418l132.14,0l133.75,379.844c-24.14,4.46 -47.96,9.41 -71.34,14.84l-36.45,-109.93c-18.44,-56.734 -40.49,-159.273 -40.71,-160.302c-4.96,-23.133 -25.4,-39.661 -49.06,-39.661l-3.01,0c-23.4,0 -43.7,16.18 -48.91,38.995c-0.24,1.024 -23.72,103.358 -43.61,160.188l-71.021,214.15c-33.491,16.74 -65.641,34.88 -96.32,54.36l194.541,-552.484Z" style="fill:url(#_Linear2);"/><path d="M700.696,731.702l125.74,392.26l200.19,0l-163.93,-465.57c-57.22,20.2 -111.26,44.63 -162,73.31Z" style="fill:url(#_Linear3);"/><path d="M863.046,1073.79l-101.82,-317.62c23.02,-11.69 46.81,-22.57 71.23,-32.57l123.31,350.19l-92.72,0Z" style="fill:url(#_Linear4);"/><path d="M445.686,866.322c-100.005,103.47 -154.181,203.99 -178.794,258.3l-144.131,0c113.168,-219.72 307.645,-339.76 501.185,-404.6c-73.82,47.89 -132.57,99.03 -178.26,146.3Zm748.31,-315.32c-0,0 -930.088,-98.65 -1194,593.69l277.198,0c-0,0 178.878,-539.88 916.798,-593.69Z" style="fill:url(#_Linear5);"/><path d="M623.946,720.022c-193.54,64.84 -388.017,184.88 -501.185,404.6l144.131,0c24.613,-54.31 78.789,-154.83 178.794,-258.3c45.69,-47.27 104.44,-98.41 178.26,-146.3Z" style="fill:url(#_Linear6);"/><clipPath id="_clip7"><path d="M623.946,720.022c-193.54,64.84 -388.017,184.88 -501.185,404.6l144.131,0c24.613,-54.31 78.789,-154.83 178.794,-258.3c45.69,-47.27 104.44,-98.41 178.26,-146.3Z"/></clipPath><g clip-path="url(#_clip7)"><rect x="122.761" y="720.022" width="501.185" height="404.6" style="fill:url(#_Linear8);fill-rule:nonzero;"/></g><path d="M2062.76,1124.62l663.81,0l0,-167.09l-469.63,0l-0,-237.19c-78.22,15.41 -143.86,40.12 -194.18,64.11l-0,340.17Z" style="fill:url(#_Linear9);"/><path d="M2112.94,1074.44l-0,-257.6c30.42,-12.98 61.77,-24 93.82,-32.99l-0,173.68c-0,27.71 22.47,50.18 50.18,50.18l419.46,0l0,66.73l-563.46,0Z" style="fill:url(#_Linear10);"/><path d="M2256.94,222.98l445.55,0l-0,-167.083l-639.73,0l-0,539.645c62.5,-49.46 129.01,-83.75 194.18,-107.37l-0,-265.192Z" style="fill:url(#_Linear11);"/><path d="M2112.94,106.074l539.37,0l0,66.729l-395.37,0c-27.71,0 -50.18,22.468 -50.18,50.177l-0,230.862c-32.65,13.53 -63.98,29.12 -93.82,46.69l-0,-394.458Z" style="fill:url(#_Linear12);"/><path d="M2576.55,579.662c30.72,0 57.38,1.71 78.18,3.73l-0,84.28c-69.97,-15.31 -140.08,-23.04 -209.28,-23.04c-87.69,0 -166.44,12.21 -234.75,30.1c121.33,-74.8 255.8,-95.07 365.85,-95.07Zm108.29,125.62l0,-214.46c0,0 -513.62,-106.99 -762.15,331.15c-0,0 304.9,-253.66 762.15,-116.69Z" style="fill:url(#_Linear13);"/><path d="M2654.73,667.672l-0,-84.28c-20.8,-2.02 -47.46,-3.73 -78.18,-3.73c-110.05,0 -244.52,20.27 -365.85,95.07c68.31,-17.89 147.06,-30.1 234.75,-30.1c69.2,0 139.31,7.73 209.28,23.04Z" style="fill:url(#_Linear14);"/><clipPath id="_clip15"><path d="M2654.73,667.672l-0,-84.28c-20.8,-2.02 -47.46,-3.73 -78.18,-3.73c-110.05,0 -244.52,20.27 -365.85,95.07c68.31,-17.89 147.06,-30.1 234.75,-30.1c69.2,0 139.31,7.73 209.28,23.04Z"/></clipPath><g clip-path="url(#_clip15)"><rect x="2210.7" y="579.662" width="444.03" height="95.07" style="fill:url(#_Linear16);fill-rule:nonzero;"/></g><path d="M3417.95,841.302l165.57,287.5l218.26,0l-328.9,-533.34c-32.48,52.14 -64.83,108.24 -96.45,168.39c11.63,22.55 26.28,50.29 41.52,77.45Z" style="fill:url(#_Linear17);"/><path d="M3612.53,1078.62l-151.1,-262.36c-8.88,-15.84 -18.4,-33.37 -28.29,-52.16c13.08,-24.32 26.54,-48.41 40.29,-72.15l238.45,386.67l-99.35,0Z" style="fill:url(#_Linear18);"/><path d="M3282.47,321.994l-146,-261.914l-221.28,0l274.53,453.242c37.61,-48.41 77.38,-96.37 119.06,-142.7c-8.3,-15.81 -17.24,-32.466 -26.31,-48.628Z" style="fill:url(#_Linear19);"/><path d="M3004.24,110.256l102.75,0l131.65,236.169c3.06,5.457 6.21,11.147 9.43,17.057c-17.61,20.16 -35.21,40.97 -52.71,62.31l-191.12,-315.536Z" style="fill:url(#_Linear20);"/><path d="M3141.39,1165.54l-189.85,0c101.57,-194.78 373.83,-673.05 713.59,-918.823c-165.95,187.213 -373.59,485.403 -523.74,918.823Zm-317.46,20.07l330.53,0c279.26,-842.81 788.41,-1182.34 788.41,-1182.34c-618.35,103.754 -1118.94,1182.34 -1118.94,1182.34Z" style="fill:url(#_Linear21);"/><path d="M3665.13,246.719c-339.76,245.773 -612.02,724.043 -713.59,918.823l189.85,0c150.15,-433.42 357.79,-731.61 523.74,-918.823Z" style="fill:url(#_Linear22);"/><clipPath id="_clip23"><path d="M3665.13,246.719c-339.76,245.773 -612.02,724.043 -713.59,918.823l189.85,0c150.15,-433.42 357.79,-731.61 523.74,-918.823Z"/></clipPath><g clip-path="url(#_clip23)"><rect x="2951.54" y="246.719" width="713.59" height="918.823" style="fill:url(#_Linear24);fill-rule:nonzero;"/></g><path d="M1160.43,1124.62l194.18,0l-0,-322.01c-80.09,-9.16 -149.31,-24.98 -194.18,-36.95l0,358.96Z" style="fill:url(#_Linear25);"/><path d="M1210.61,1074.44l-0,-245.04c27.76,6.04 59.45,12.09 93.82,17.2l0,227.84l-93.82,0Z" style="fill:url(#_Linear26);"/><path d="M1354.61,271.91c-74.36,6.597 -145.34,20.906 -194.18,32.465l0,367.227c72.76,-0.58 137.38,-3.82 194.18,-9.72l-0,-389.972Z" style="fill:url(#_Linear27);"/><path d="M1210.61,344.59c27.59,-5.777 59.68,-11.696 93.82,-16.44l0,287.792c-29.31,2.16 -60.66,3.69 -93.82,4.6l-0,-275.952Z" style="fill:url(#_Linear28);"/><path d="M1819.28,655.722c-41.18,36.67 -94.17,62.72 -158.37,77.97c33,-17.48 59.98,-38.04 81.59,-61.83c52.29,-57.57 73.03,-134.08 63.41,-233.89c-8.28,-85.87 -63.93,-229.927 -343.58,-229.927c-107.1,0 -217.22,20.629 -288.4,37.206l0,-130.004c95.49,-8.212 191.7,-14.896 273.79,-14.896c104.75,0 183.71,10.888 248.48,34.261c94.97,34.747 177.55,143.45 200.58,264.27c11.43,59.98 16.57,173.1 -77.5,256.84Zm-132.75,-617.887c-141.72,-51.147 -321.08,-43.461 -602.92,-17.839l-0,263.055c-0,0 602.92,-183.626 632.26,120.551c18.94,196.41 -83.95,310.76 -596.39,308.19c-0,0 472.4,160.04 709.74,-51.24c210.1,-187.04 70.03,-544.899 -142.69,-622.717Z" style="fill:url(#_Linear29);"/><path d="M1896.78,398.882c-23.03,-120.82 -105.61,-229.523 -200.58,-264.27c-64.77,-23.373 -143.73,-34.261 -248.48,-34.261c-82.09,0 -178.3,6.684 -273.79,14.896l0,130.004c71.18,-16.577 181.3,-37.206 288.4,-37.206c279.65,0 335.3,144.057 343.58,229.927c9.62,99.81 -11.12,176.32 -63.41,233.89c-21.61,23.79 -48.59,44.35 -81.59,61.83c64.2,-15.25 117.19,-41.3 158.37,-77.97c94.07,-83.74 88.93,-196.86 77.5,-256.84Z" style="fill:url(#_Linear30);"/><clipPath id="_clip31"><path d="M1896.78,398.882c-23.03,-120.82 -105.61,-229.523 -200.58,-264.27c-64.77,-23.373 -143.73,-34.261 -248.48,-34.261c-82.09,0 -178.3,6.684 -273.79,14.896l0,130.004c71.18,-16.577 181.3,-37.206 288.4,-37.206c279.65,0 335.3,144.057 343.58,229.927c9.62,99.81 -11.12,176.32 -63.41,233.89c-21.61,23.79 -48.59,44.35 -81.59,61.83c64.2,-15.25 117.19,-41.3 158.37,-77.97c94.07,-83.74 88.93,-196.86 77.5,-256.84Z"/></clipPath><g clip-path="url(#_clip31)"><rect x="1173.93" y="100.351" width="728.941" height="633.341" style="fill:url(#_Linear32);fill-rule:nonzero;"/></g></g><defs><linearGradient id="_Linear1" x1="0" y1="0" x2="1" y2="0" gradientUnits="userSpaceOnUse" gradientTransform="matrix(141.327,-801.506,801.506,141.327,467.366,849.412)"><stop offset="0" style="stop-color:#524f5b;stop-opacity:1"/><stop offset="1" style="stop-color:#070808;stop-opacity:1"/></linearGradient><linearGradient id="_Linear2" x1="0" y1="0" x2="1" y2="0" gradientUnits="userSpaceOnUse" gradientTransform="matrix(104.33,-591.686,591.686,104.33,496.616,694.662)"><stop offset="0" style="stop-color:#524f5b;stop-opacity:1"/><stop offset="0.4" style="stop-color:#4d4b55;stop-opacity:1"/><stop offset="0.9" style="stop-color:#131315;stop-opacity:1"/><stop offset="1" style="stop-color:#070808;stop-opacity:1"/></linearGradient><linearGradient id="_Linear3" x1="0" y1="0" x2="1" y2="0" gradientUnits="userSpaceOnUse" gradientTransform="matrix(80.7104,-457.731,457.731,80.7104,828.996,1124.41)"><stop offset="0" style="stop-color:#524f5b;stop-opacity:1"/><stop offset="1" style="stop-color:#070808;stop-opacity:1"/></linearGradient><linearGradient id="_Linear4" x1="0" y1="0" x2="1" y2="0" gradientUnits="userSpaceOnUse" gradientTransform="matrix(58.9637,-334.4,334.4,58.9637,831.476,1068.22)"><stop offset="0" style="stop-color:#524f5b;stop-opacity:1"/><stop offset="0.4" style="stop-color:#4d4b55;stop-opacity:1"/><stop offset="0.9" style="stop-color:#131315;stop-opacity:1"/><stop offset="1" style="stop-color:#070808;stop-opacity:1"/></linearGradient><linearGradient id="_Linear5" x1="0" y1="0" x2="1" y2="0" gradientUnits="userSpaceOnUse" gradientTransform="matrix(1193.99,0,0,1193.99,9.76563e-07,845.422)"><stop offset="0" style="stop-color:#237ba7;stop-opacity:1"/><stop offset="0.4" style="stop-color:#237ba7;stop-opacity:1"/><stop offset="0.5" style="stop-color:#22739e;stop-opacity:1"/><stop offset="0.7" style="stop-color:#195675;stop-opacity:1"/><stop offset="1" style="stop-color:#15355c;stop-opacity:1"/></linearGradient><linearGradient id="_Linear6" x1="0" y1="0" x2="1" y2="0" gradientUnits="userSpaceOnUse" gradientTransform="matrix(1193.99,0,0,1193.99,9.76563e-07,922.322)"><stop offset="0" style="stop-color:#237ba7;stop-opacity:1"/><stop offset="0.4" style="stop-color:#237ba7;stop-opacity:1"/><stop offset="0.5" style="stop-color:#22739e;stop-opacity:1"/><stop offset="0.7" style="stop-color:#195675;stop-opacity:1"/><stop offset="1" style="stop-color:#15355c;stop-opacity:1"/></linearGradient><linearGradient id="_Linear8" x1="0" y1="0" x2="1" y2="0" gradientUnits="userSpaceOnUse" gradientTransform="matrix(501.185,0,0,501.185,122.761,922.322)"><stop offset="0" style="stop-color:#85ccf1;stop-opacity:1"/><stop offset="1" style="stop-color:#30a0d9;stop-opacity:1"/></linearGradient><linearGradient id="_Linear9" x1="0" y1="0" x2="1" y2="0" gradientUnits="userSpaceOnUse" gradientTransform="matrix(74.9899,-425.289,425.289,74.9899,2355.57,1176.25)"><stop offset="0" style="stop-color:#524f5b;stop-opacity:1"/><stop offset="1" style="stop-color:#070808;stop-opacity:1"/></linearGradient><linearGradient id="_Linear10" x1="0" y1="0" x2="1" y2="0" gradientUnits="userSpaceOnUse" gradientTransform="matrix(52.5236,-297.876,297.876,52.5236,2364.15,1118.74)"><stop offset="0" style="stop-color:#524f5b;stop-opacity:1"/><stop offset="0.4" style="stop-color:#4d4b55;stop-opacity:1"/><stop offset="0.9" style="stop-color:#131315;stop-opacity:1"/><stop offset="1" style="stop-color:#070808;stop-opacity:1"/></linearGradient><linearGradient id="_Linear11" x1="0" y1="0" x2="1" y2="0" gradientUnits="userSpaceOnUse" gradientTransform="matrix(111.575,-632.773,632.773,111.575,2294.98,636.492)"><stop offset="0" style="stop-color:#524f5b;stop-opacity:1"/><stop offset="1" style="stop-color:#070808;stop-opacity:1"/></linearGradient><linearGradient id="_Linear12" x1="0" y1="0" x2="1" y2="0" gradientUnits="userSpaceOnUse" gradientTransform="matrix(83.7202,-474.801,474.801,83.7202,2312.74,535.762)"><stop offset="0" style="stop-color:#524f5b;stop-opacity:1"/><stop offset="0.4" style="stop-color:#4d4b55;stop-opacity:1"/><stop offset="0.9" style="stop-color:#131315;stop-opacity:1"/><stop offset="1" style="stop-color:#070808;stop-opacity:1"/></linearGradient><linearGradient id="_Linear13" x1="0" y1="0" x2="1" y2="0" gradientUnits="userSpaceOnUse" gradientTransform="matrix(989.019,-307.468,307.468,989.019,1940.52,782.012)"><stop offset="0" style="stop-color:#237ba7;stop-opacity:1"/><stop offset="0.4" style="stop-color:#237ba7;stop-opacity:1"/><stop offset="0.5" style="stop-color:#23759f;stop-opacity:1"/><stop offset="0.7" style="stop-color:#195675;stop-opacity:1"/><stop offset="1" style="stop-color:#15355c;stop-opacity:1"/></linearGradient><linearGradient id="_Linear14" x1="0" y1="0" x2="1" y2="0" gradientUnits="userSpaceOnUse" gradientTransform="matrix(989.017,-307.467,307.467,989.017,1949.73,811.642)"><stop offset="0" style="stop-color:#237ba7;stop-opacity:1"/><stop offset="0.4" style="stop-color:#237ba7;stop-opacity:1"/><stop offset="0.5" style="stop-color:#23759f;stop-opacity:1"/><stop offset="0.7" style="stop-color:#195675;stop-opacity:1"/><stop offset="1" style="stop-color:#15355c;stop-opacity:1"/></linearGradient><linearGradient id="_Linear16" x1="0" y1="0" x2="1" y2="0" gradientUnits="userSpaceOnUse" gradientTransform="matrix(444.031,0,0,444.031,2210.7,627.192)"><stop offset="0" style="stop-color:#85ccf1;stop-opacity:1"/><stop offset="1" style="stop-color:#30a0d9;stop-opacity:1"/></linearGradient><linearGradient id="_Linear17" x1="0" y1="0" x2="1" y2="0" gradientUnits="userSpaceOnUse" gradientTransform="matrix(87.8712,-498.342,498.342,87.8712,3557.73,1124.25)"><stop offset="0" style="stop-color:#524f5b;stop-opacity:1"/><stop offset="1" style="stop-color:#070808;stop-opacity:1"/></linearGradient><linearGradient id="_Linear18" x1="0" y1="0" x2="1" y2="0" gradientUnits="userSpaceOnUse" gradientTransform="matrix(61.9312,-351.229,351.229,61.9312,3546.82,1067.04)"><stop offset="0" style="stop-color:#524f5b;stop-opacity:1"/><stop offset="0.4" style="stop-color:#4d4b55;stop-opacity:1"/><stop offset="0.9" style="stop-color:#131315;stop-opacity:1"/><stop offset="1" style="stop-color:#070808;stop-opacity:1"/></linearGradient><linearGradient id="_Linear19" x1="0" y1="0" x2="1" y2="0" gradientUnits="userSpaceOnUse" gradientTransform="matrix(75.903,-430.467,430.467,75.903,3063.37,491.042)"><stop offset="0" style="stop-color:#524f5b;stop-opacity:1"/><stop offset="1" style="stop-color:#070808;stop-opacity:1"/></linearGradient><linearGradient id="_Linear20" x1="0" y1="0" x2="1" y2="0" gradientUnits="userSpaceOnUse" gradientTransform="matrix(51.2957,-290.912,290.912,51.2957,3095.93,408.262)"><stop offset="0" style="stop-color:#524f5b;stop-opacity:1"/><stop offset="0.4" style="stop-color:#4d4b55;stop-opacity:1"/><stop offset="0.9" style="stop-color:#131315;stop-opacity:1"/><stop offset="1" style="stop-color:#070808;stop-opacity:1"/></linearGradient><linearGradient id="_Linear21" x1="0" y1="0" x2="1" y2="0" gradientUnits="userSpaceOnUse" gradientTransform="matrix(1118.94,0,0,1118.94,2823.93,594.442)"><stop offset="0" style="stop-color:#237ba7;stop-opacity:1"/><stop offset="0.4" style="stop-color:#237ba7;stop-opacity:1"/><stop offset="0.5" style="stop-color:#23759f;stop-opacity:1"/><stop offset="0.7" style="stop-color:#195675;stop-opacity:1"/><stop offset="1" style="stop-color:#15355c;stop-opacity:1"/></linearGradient><linearGradient id="_Linear22" x1="0" y1="0" x2="1" y2="0" gradientUnits="userSpaceOnUse" gradientTransform="matrix(1118.94,0,0,1118.94,2823.93,706.132)"><stop offset="0" style="stop-color:#237ba7;stop-opacity:1"/><stop offset="0.4" style="stop-color:#237ba7;stop-opacity:1"/><stop offset="0.5" style="stop-color:#23759f;stop-opacity:1"/><stop offset="0.7" style="stop-color:#195675;stop-opacity:1"/><stop offset="1" style="stop-color:#15355c;stop-opacity:1"/></linearGradient><linearGradient id="_Linear24" x1="0" y1="0" x2="1" y2="0" gradientUnits="userSpaceOnUse" gradientTransform="matrix(713.599,0,0,713.599,2951.54,706.132)"><stop offset="0" style="stop-color:#85ccf1;stop-opacity:1"/><stop offset="1" style="stop-color:#30a0d9;stop-opacity:1"/></linearGradient><linearGradient id="_Linear25" x1="0" y1="0" x2="1" y2="0" gradientUnits="userSpaceOnUse" gradientTransform="matrix(61.3849,-348.131,348.131,61.3849,1223.9,1135.81)"><stop offset="0" style="stop-color:#524f5b;stop-opacity:1"/><stop offset="1" style="stop-color:#070808;stop-opacity:1"/></linearGradient><linearGradient id="_Linear26" x1="0" y1="0" x2="1" y2="0" gradientUnits="userSpaceOnUse" gradientTransform="matrix(41.9049,-237.654,237.654,41.9049,1235.16,1078.77)"><stop offset="0" style="stop-color:#524f5b;stop-opacity:1"/><stop offset="0.4" style="stop-color:#4d4b55;stop-opacity:1"/><stop offset="0.9" style="stop-color:#131315;stop-opacity:1"/><stop offset="1" style="stop-color:#070808;stop-opacity:1"/></linearGradient><linearGradient id="_Linear27" x1="0" y1="0" x2="1" y2="0" gradientUnits="userSpaceOnUse" gradientTransform="matrix(74.2062,-420.844,420.844,74.2062,1222.36,682.522)"><stop offset="0" style="stop-color:#524f5b;stop-opacity:1"/><stop offset="1" style="stop-color:#070808;stop-opacity:1"/></linearGradient><linearGradient id="_Linear28" x1="0" y1="0" x2="1" y2="0" gradientUnits="userSpaceOnUse" gradientTransform="matrix(52.8312,-299.621,299.621,52.8312,1232.12,624.332)"><stop offset="0" style="stop-color:#524f5b;stop-opacity:1"/><stop offset="0.4" style="stop-color:#4d4b55;stop-opacity:1"/><stop offset="0.9" style="stop-color:#131315;stop-opacity:1"/><stop offset="1" style="stop-color:#070808;stop-opacity:1"/></linearGradient><linearGradient id="_Linear29" x1="0" y1="0" x2="1" y2="0" gradientUnits="userSpaceOnUse" gradientTransform="matrix(945.458,1109.44,-1109.44,945.458,1011.3,-115.991)"><stop offset="0" style="stop-color:#237ba7;stop-opacity:1"/><stop offset="0.4" style="stop-color:#237ba7;stop-opacity:1"/><stop offset="0.5" style="stop-color:#23759f;stop-opacity:1"/><stop offset="0.7" style="stop-color:#195675;stop-opacity:1"/><stop offset="1" style="stop-color:#15355c;stop-opacity:1"/></linearGradient><linearGradient id="_Linear30" x1="0" y1="0" x2="1" y2="0" gradientUnits="userSpaceOnUse" gradientTransform="matrix(945.46,1109.44,-1109.44,945.46,1118.2,-207.087)"><stop offset="0" style="stop-color:#237ba7;stop-opacity:1"/><stop offset="0.4" style="stop-color:#237ba7;stop-opacity:1"/><stop offset="0.5" style="stop-color:#23759f;stop-opacity:1"/><stop offset="0.7" style="stop-color:#195675;stop-opacity:1"/><stop offset="1" style="stop-color:#15355c;stop-opacity:1"/></linearGradient><linearGradient id="_Linear32" x1="0" y1="0" x2="1" y2="0" gradientUnits="userSpaceOnUse" gradientTransform="matrix(728.942,0,0,728.942,1173.93,417.022)"><stop offset="0" style="stop-color:#85ccf1;stop-opacity:1"/><stop offset="1" style="stop-color:#30a0d9;stop-opacity:1"/></linearGradient></defs></svg>