<?xml version="1.0" encoding="UTF-8" standalone="no"?><!DOCTYPE svg PUBLIC "-//W3C//DTD SVG 1.1//EN" "http://www.w3.org/Graphics/SVG/1.1/DTD/svg11.dtd"><svg width="100%" height="100%" viewBox="0 0 2101 2101" version="1.1" xmlns="http://www.w3.org/2000/svg" xmlns:xlink="http://www.w3.org/1999/xlink" xml:space="preserve" xmlns:serif="http://www.serif.com/" style="fill-rule:evenodd;clip-rule:evenodd;stroke-linejoin:round;stroke-miterlimit:2;"><g><path d="M2100,165.623l-0,-51.838c0.17,-0.01 0.34,-0.019 0.5,-0.029l-0,51.855c-0.16,0.004 -0.33,0.008 -0.5,0.012Z" style="fill-rule:nonzero;"/><path d="M2100.5,1632.79l-0.5,0l-0,-9.28l0.5,0l-0,9.28Zm-0,-133.56c-0.17,-0.06 -0.33,-0.12 -0.5,-0.18l-0,-9.91c0.17,0.07 0.33,0.13 0.5,0.19l-0,9.9Zm-0,-235.46c-0.17,-0.09 -0.33,-0.17 -0.5,-0.25l-0,-10.31c0.17,0.08 0.33,0.16 0.5,0.24l-0,10.32Zm-0,-111.44l-0.5,0l-0,-9.28l0.5,-0l-0,9.28Zm-0,-23.23l-0.5,-0l-0,-9.28l0.5,0l-0,9.28Zm-0,-198.207l-0.5,-0l-0,-9.285l0.5,0l-0,9.285Zm-0,-54.805l-0.5,0l-0,-9.282l0.5,0l-0,9.282Zm-0,-24.95l-0.5,-0l-0,-9.282l0.5,-0l-0,9.282Zm-0,-38.373l-0.5,0l-0,-9.282l0.5,0l-0,9.282Zm-0,-79.882l-0.5,0l-0,-9.282l0.5,-0l-0,9.282Zm-0,-64.162l-0.5,-0l-0,-9.282l0.5,-0l-0,9.282Zm-0,-60.95l-0.5,-0l-0,-12.289c0.16,0.132 0.33,0.259 0.5,0.383l-0,11.906Zm-0.5,-277.605l-0,-9.282l0.5,0l-0,9.282l-0.5,0Z" style="fill-rule:nonzero;"/><path d="M2100.5,1689.95l-0.5,0l-0,-5l0.5,0l-0,5Zm-0.5,-1420.23l-0,-5l0.5,-0l-0,5l-0.5,-0Z" style="fill-rule:nonzero;"/><path d="M1215.88,1306.04c-1.76,-4.03 -3.32,-8.47 -4.63,-13.27l-0,-11.33c3.06,5.42 6.75,9.8 11.08,13.05c0.55,0.42 1.2,0.62 1.85,0.62c0.93,-0 1.86,-0.43 2.46,-1.23c1.02,-1.37 0.75,-3.3 -0.61,-4.32c-6.57,-4.94 -11.54,-13.08 -14.78,-24.22l-0,-1.38c-0,-1.7 -1.38,-3.08 -3.08,-3.08l-0.25,0.02l-0.25,-0.02c-1.4,0 -2.62,0.95 -2.98,2.3c-3.21,12.25 -8.38,21.13 -15.37,26.38c-1.36,1.02 -1.64,2.95 -0.61,4.32c1.02,1.36 2.95,1.63 4.31,0.61c4.81,-3.61 8.83,-8.6 12.07,-14.88l-0,11.41c-0.06,0.14 -0.12,0.29 -0.16,0.44c-2.27,8.67 -5.29,16.17 -8.95,22.34c-7.33,2.65 -14.76,5.11 -22.28,7.36c-5.91,-7.01 -10.55,-16.53 -13.8,-28.39l0,-11.33c3.06,5.42 6.75,9.8 11.07,13.05c1.36,1.02 3.29,0.75 4.32,-0.61c1.02,-1.37 0.74,-3.3 -0.62,-4.32c-6.57,-4.94 -11.53,-13.08 -14.77,-24.21l0,-1.39c0,-0.72 -0.25,-1.37 -0.66,-1.89c11.65,-2.38 23.3,-5.59 34.76,-9.59c0.26,-0.06 0.51,-0.14 0.74,-0.26c17.01,-5.99 33.56,-13.7 48.98,-22.98c27.64,-16.65 49.11,-36.89 60.46,-56.99c4.83,-8.56 12.87,-17.96 23.89,-27.91c6.04,-5.46 13.13,-11.21 21.06,-17.1c7.99,-5.9 16.89,-11.99 26.45,-18.09c13.85,-8.83 29.43,-17.94 46.43,-27.15c-5.05,13.96 -12.14,24.45 -21.13,31.21c-1.36,1.02 -1.63,2.95 -0.61,4.31c0.61,0.81 1.53,1.23 2.47,1.23c0.64,0 1.29,-0.2 1.85,-0.62c8.53,-6.41 15.46,-15.72 20.71,-27.75l0,17.84c-5.88,22.24 -15.37,38.41 -28.22,48.05c-1.37,1.02 -1.64,2.96 -0.62,4.32c0.41,0.55 0.98,0.9 1.59,1.09c-46.06,63.37 -109.01,113.71 -182.17,144.36Zm-10.79,4.35c-0.14,0.06 -0.29,0.11 -0.43,0.17c0.15,-0.32 0.28,-0.65 0.43,-0.97l-0,0.8Zm-163.82,28.67c-6.97,-7.21 -12.331,-17.56 -15.951,-30.81l-0,-11.34c3.051,5.42 6.741,9.8 11.071,13.05c0.559,0.42 1.21,0.62 1.85,0.62c1.23,0 2.44,-0.73 2.93,-2.1c0.47,-1.28 -0.081,-2.69 -1.17,-3.51c-6.53,-4.95 -11.46,-13.07 -14.681,-24.16l-0,-1.37c-0,-1.7 -1.379,-3.08 -3.089,-3.08l-0.19,0.02c-0.1,-0.01 -0.2,-0.03 -0.3,-0.03c-1.4,-0 -2.63,0.95 -2.98,2.3c-3.2,12.21 -8.35,21.07 -15.3,26.33c-1.26,0.95 -1.68,2.75 -0.87,4.1c0.96,1.59 3.05,1.97 4.5,0.88c4.8,-3.61 8.83,-8.6 12.06,-14.87l0,11.4c-0.06,0.14 -0.11,0.29 -0.16,0.45c-3.27,12.49 -8.04,22.49 -14.18,29.78c-13.651,-1.47 -27.166,-3.57 -40.502,-6.32c-5.889,-7.03 -10.52,-16.55 -13.753,-28.32l-0,-11.37c3.057,5.41 6.745,9.79 11.07,13.04c0.555,0.42 1.205,0.62 1.849,0.62c1.227,-0 2.436,-0.74 2.929,-2.1c0.466,-1.28 -0.079,-2.69 -1.169,-3.52c-6.526,-4.94 -11.457,-13.05 -14.679,-24.13l-0,-1.39c-0,-1.7 -1.379,-3.08 -3.081,-3.08l-0.202,0.02c-0.1,-0.01 -0.198,-0.03 -0.3,-0.03c-1.401,0 -2.626,0.95 -2.981,2.3c-3.198,12.21 -8.345,21.07 -15.302,26.32c-1.254,0.95 -1.68,2.75 -0.871,4.1c0.957,1.6 3.052,1.98 4.5,0.89c4.809,-3.61 8.837,-8.61 12.074,-14.89l0,11.38c-0.069,0.16 -0.127,0.32 -0.171,0.49c-2.298,8.79 -5.355,16.37 -9.088,22.59c-47.756,-13.36 -92.737,-34.87 -132.966,-63.37c4.792,-15.53 18.464,-31.03 30.61,-44.77c3.385,-3.83 6.582,-7.45 9.573,-11.03c15.088,-18.05 6.162,-45.84 -1.271,-62.06c11.34,-11.98 15.394,-29.65 16.827,-41.65c0.473,-3.96 4.727,-6.25 8.275,-4.43l45.379,23.27l-0,25.38c-0,1.61 1.16,3.08 2.764,3.24c1.844,0.18 3.399,-1.26 3.399,-3.07l0,-25.25l22.585,-7.96c0.171,-0.08 0.34,-0.15 0.51,-0.23l4.453,-2.56l14.953,76.75l-11.222,46.87c-11.789,0.73 -22.28,2.38 -31.279,4.36l0,-24.4c0,-1.61 -1.16,-3.08 -2.764,-3.24c-1.845,-0.18 -3.399,1.26 -3.399,3.07l-0,26.04c-18.657,4.78 -29.486,10.6 -30.183,10.98c-1.492,0.82 -2.04,2.69 -1.223,4.19c0.819,1.49 2.693,2.04 4.183,1.22c0.258,-0.14 26.151,-14.09 67.29,-16.21c26.778,-1.39 53.973,2.48 80.822,11.5c4.351,1.45 8.801,3.09 13.24,4.86c7.181,2.88 14.731,5.26 22.471,7.13c0.58,0.36 1.26,0.52 1.93,0.46c5.77,1.32 11.78,2.36 17.89,3.13c-5.09,16.5 -12.7,28.7 -22.69,36.27c-1.3,0.98 -1.81,2.78 -0.98,4.17c0.96,1.6 3.06,1.98 4.5,0.89c8.54,-6.41 15.47,-15.72 20.73,-27.76l0,17.92c-4.77,17.99 -11.93,32.03 -21.27,41.78c-5.9,0.24 -11.82,0.37 -17.77,0.37c-3.08,-0 -6.161,-0.05 -9.23,-0.12Zm-22.12,-1.05c-2.36,-0.17 -4.73,-0.36 -7.09,-0.58c2.64,-3.63 5.01,-7.73 7.09,-12.31l0,12.89Zm6.169,-11.79c2.221,4.71 4.76,8.91 7.601,12.58c-2.54,-0.1 -5.07,-0.23 -7.601,-0.38l-0,-12.2Zm-80.927,-0.41c-1.032,-0.26 -2.059,-0.54 -3.089,-0.81c1.089,-1.93 2.119,-3.96 3.089,-6.1l0,6.91Zm6.163,-5.82c1.427,3.02 2.977,5.83 4.653,8.43c-1.553,-0.35 -3.105,-0.71 -4.653,-1.08l-0,-7.35Zm-206.157,-109.14c5.132,-5.61 9.506,-12.58 13.097,-20.82l-0,17.94c-1.11,4.2 -2.369,8.24 -3.76,12.06c-3.154,-3.01 -6.27,-6.07 -9.337,-9.18Zm207.531,-719.032l-44.271,160.091c-1.088,3.934 -4.667,6.657 -8.748,6.657l-4.248,0c-1.702,0 -3.082,1.38 -3.082,3.082l0,40.471c0,1.702 1.38,3.082 3.082,3.082l14.759,0l0,53.993c0,2.353 0.916,4.575 2.592,6.271c1.694,1.695 3.961,2.618 6.372,2.592c4.853,-0.053 8.7,4.137 8.7,8.99l0,88.625l-62.293,-0l-0,-30.14l8.886,-0c0.945,-0 1.837,-0.434 2.421,-1.175c0.585,-0.742 0.796,-1.711 0.575,-2.628l-42.201,-175.293c-0.293,-1.216 -1.227,-2.238 -2.457,-2.466c-1.656,-0.306 -3.196,0.738 -3.574,2.307l-42.24,175.452c-0.221,0.917 -0.009,1.886 0.576,2.628c0.584,0.741 1.476,1.175 2.42,1.175l8.886,-0l-0,30.14l-19.623,-0l-0,-93.326l1.601,-0c1.702,-0 3.082,-1.38 3.082,-3.081l-0,-33.65l5.24,-0c0.963,-0 1.869,-0.449 2.452,-1.215c0.583,-0.766 0.775,-1.76 0.518,-2.688l-32.226,-116.536c-0.369,-1.335 -1.585,-2.259 -2.97,-2.259c-1.386,-0 -2.601,0.924 -2.97,2.259l-32.226,116.536c-0.256,0.928 -0.065,1.922 0.518,2.688c0.583,0.766 1.49,1.215 2.452,1.215l5.24,-0l-0,33.65c-0,1.701 1.38,3.081 3.082,3.081l1.601,-0l-0,93.326l-13.857,-0c-1.702,-0 -3.082,1.379 -3.082,3.081l0,157.877c0,0.37 0.064,0.73 0.191,1.07l20.613,55.82l-0.01,0.01l-57.186,30.64l-0,-66.17c6.121,14.69 14.329,25.97 24.531,33.64c0.554,0.42 1.205,0.62 1.849,0.62c1.078,0 2.139,-0.56 2.718,-1.62c0.75,-1.37 0.24,-3.09 -1.008,-4.03c-12.79,-9.68 -22.237,-25.82 -28.09,-47.97l-0,-17.14c5.219,11.71 12.051,20.78 20.423,27.06c0.555,0.42 1.205,0.62 1.849,0.62c1.079,0 2.142,-0.56 2.72,-1.62c0.749,-1.38 0.229,-3.09 -1.02,-4.04c-10.862,-8.23 -18.92,-21.91 -23.972,-40.655l-0,-21.683c4.53,9.562 10.333,17.041 17.36,22.32c0.555,0.416 1.205,0.617 1.849,0.617c1.079,0 2.143,-0.564 2.721,-1.626c0.749,-1.379 0.225,-3.089 -1.025,-4.038c-9.429,-7.155 -16.453,-19.011 -20.905,-35.228l-0,-11.347c3.01,5.33 6.632,9.655 10.872,12.889c1.305,0.996 3.187,0.994 4.302,-0.212c1.263,-1.364 1.044,-3.48 -0.403,-4.567c-6.57,-4.935 -11.534,-13.072 -14.771,-24.201l-0,-1.396c-0,-1.702 -1.379,-3.081 -3.082,-3.081l-0.228,0.022c-0.091,-0.008 -0.181,-0.022 -0.274,-0.022c-1.401,0 -2.626,0.944 -2.981,2.3c-3.197,12.207 -8.344,21.063 -15.299,26.322c-1.225,0.927 -1.673,2.665 -0.924,4.007c0.581,1.042 1.635,1.595 2.702,1.595c0.645,0 1.294,-0.201 1.849,-0.618c4.808,-3.611 8.837,-8.604 12.074,-14.885l0,11.394c-0.068,0.151 -0.124,0.307 -0.167,0.471c-4.425,16.896 -11.575,29.188 -21.252,36.541c-1.294,0.982 -1.813,2.776 -0.98,4.17c0.956,1.599 3.055,1.981 4.503,0.893c7.306,-5.488 13.291,-13.349 17.896,-23.46l0,21.756l-0.053,0.15c-5.031,19.212 -13.174,33.192 -24.205,41.562c-1.292,0.98 -1.807,2.77 -0.975,4.16c0.956,1.6 3.056,1.98 4.503,0.89c8.539,-6.41 15.473,-15.72 20.73,-27.77l0,17.88c-4.857,18.38 -12.206,32.62 -21.87,42.44c-20.624,-50.97 -31.377,-105.861 -31.377,-161.321c0,-197.929 138.811,-372.86 330.815,-417.971Zm335.981,692.952c-0.56,-0.78 -1.46,-1.28 -2.49,-1.28c-10.97,-0 -16.51,2.66 -21.86,5.23c-4.96,2.38 -9.63,4.63 -19.19,4.63c-9.56,-0 -14.24,-2.25 -19.19,-4.63c-5.36,-2.57 -10.9,-5.23 -21.86,-5.23c-10.96,-0 -16.5,2.66 -21.86,5.23c-4.95,2.38 -9.63,4.63 -19.19,4.63c-9.56,-0 -14.23,-2.25 -19.18,-4.63c-5.36,-2.57 -10.9,-5.23 -21.86,-5.23c-0.94,-0 -1.78,0.43 -2.34,1.09c-2.49,-3.6 -4.83,-7.2 -7.03,-10.77l184.15,-0c-2.36,3.66 -5.07,7.32 -8.1,10.96Zm-46.58,38.7c-7.57,-0.43 -11.75,-2.43 -16.16,-4.54c-5.35,-2.58 -10.89,-5.24 -21.86,-5.24c-10.95,0 -16.49,2.66 -21.84,5.23c-4.95,2.38 -9.63,4.63 -19.19,4.63c-3.37,-0 -6.3,-0.29 -8.96,-0.85c-12.15,-10.01 -22.3,-21.42 -30.81,-33.03c8.7,0.19 13.18,2.33 17.91,4.6c5.35,2.58 10.89,5.24 21.85,5.24c10.97,0 16.51,-2.66 21.86,-5.24c4.95,-2.37 9.63,-4.62 19.19,-4.62c9.56,0 14.23,2.25 19.19,4.62c5.35,2.58 10.89,5.24 21.86,5.24c10.96,0 16.5,-2.66 21.86,-5.23c4.63,-2.23 9.02,-4.34 17.38,-4.6c-11.01,11.98 -25.42,23.54 -42.28,33.79Zm-274.958,-37.11l0.027,-0.12l24.602,-102.72l12.609,0c0.67,0.16 2.31,0.57 4.67,1.22l21.429,157.85c-24.679,-7.74 -49.629,-11.24 -74.297,-10.44l10.96,-45.79Zm17.539,-99.7l-20.226,84.45l-12.766,-65.52l32.992,-18.93Zm-250.056,-31.39l-10.776,-29.19l-0,-154.245l10.776,-0l-0,183.435Zm64.229,-171.787l-3.617,0c-1.702,0 -3.082,1.379 -3.082,3.081l0,28.601l-9.84,0c-1.702,0 -3.081,1.379 -3.081,3.082l-0,29.45c-0,1.702 1.379,3.082 3.081,3.082l6.343,0l0,132.381l-31.684,-0c-7.24,-0 -13.713,-4.51 -16.221,-11.3c0.014,-0.12 0.036,-0.23 0.036,-0.36l-0,-199.665l58.065,-0l-0,11.648Zm60.544,-47.951l-0,47.951l-54.38,0l-0,-14.706l0.002,-0.024l-0.002,-0.024l-0,-33.197l54.38,-0Zm-51.857,-6.164l-13.661,0l31.68,-131.588l-18.019,131.588Zm43.129,0l-36.908,0l18.454,-134.767l18.454,134.767Zm19.867,0l-13.645,0l-17.997,-131.431l31.642,131.431Zm-75.716,121.411l76.296,0l-0,132.381l-16.66,-0c-3.573,-0 -6.469,-2.9 -6.469,-6.47l0,-44.7c0,-8.3 -6.724,-15.02 -15.019,-15.02c-8.295,-0 -15.019,6.72 -15.019,15.02l-0,44.7c-0,3.57 -2.896,6.47 -6.469,6.47l-16.66,-0l0,-132.381Zm85.72,-29.451l-0,23.287l-95.144,-0l0,-23.287l95.144,0Zm-82.223,-31.682l69.302,-0l-0,25.25l-69.302,-0l-0,-25.25Zm107.748,187.434l-28.786,5.45l0,-131.751l6.343,0c1.702,0 3.082,-1.38 3.082,-3.082l-0,-29.45c-0,-1.703 -1.38,-3.082 -3.082,-3.082l-9.84,0l0,-28.601c0,-1.702 -1.38,-3.081 -3.082,-3.081l-5.139,0l-0,-11.648l40.488,-0l0,205.085l0.016,0.16Zm21.789,-4.12l-15.642,2.96l-0,-204.085l15.642,-0l0,201.125Zm-11.501,-367.757l123.586,0l0,53.991c0,1.489 -1.211,2.7 -2.7,2.7c-3.99,0 -7.74,1.553 -10.59,4.384c-2.82,2.837 -4.37,6.594 -4.37,10.58l0,229.472l-79.189,63.75l-9.072,1.72l0,-294.942c0,-8.252 -6.713,-14.964 -14.964,-14.964c-0.727,0 -1.407,-0.28 -1.901,-0.773c-0.508,-0.515 -0.8,-1.217 -0.8,-1.927l-0,-53.991Zm112.086,89.479l0,-17.824c0,-2.347 0.919,-4.561 2.57,-6.221c1.67,-1.664 3.89,-2.58 6.23,-2.58c4.89,0 8.859,-3.976 8.859,-8.863l-0,-11.39l50.011,-0l23.26,46.878l-90.93,0Zm0,25.48l0,-19.316l80.39,-0l0,19.316l-80.39,-0Zm270.92,46.015l-95.14,0l-0,-23.285l95.14,-0l-0,23.285Zm-9.42,6.164l0,132.389l-17.49,-0c-3.12,-0 -5.64,-2.53 -5.64,-5.64l0,-45.533c0,-8.295 -6.73,-15.02 -15.02,-15.02c-8.3,-0 -15.02,6.725 -15.02,15.02l-0,45.533c-0,3.11 -2.53,5.64 -5.64,5.64l-17.49,-0l-0,-126.798c0.33,-0.494 0.53,-1.09 0.53,-1.733c0,-0.643 -0.2,-1.239 -0.53,-1.733l-0,-2.125l76.3,-0Zm6.16,48.987l75.51,0l-0,83.402l-75.51,-0l-0,-83.402Zm-267.66,98.822l0,-9.26l343.17,0l-0,9.26l-343.17,0Zm0.01,-140.868l177.26,-0l-0,125.448l-177.26,-0l0,-125.448Zm172.69,-6.941l6.33,-0l-0,0.776l-179.011,-0l-0,-30.225l169.601,-0l0,26.367c0,1.702 1.38,3.082 3.08,3.082Zm124.09,12.257l41.65,0l-0,26.857c-0,2.049 -1.66,3.71 -3.71,3.71l-34.23,0c-2.05,0 -3.71,-1.661 -3.71,-3.71l-0,-26.857Zm2.07,-6.164l-9.42,-0l19.57,-70.767l-10.15,70.767Zm31.29,-0l-25.06,-0l12.53,-87.413l12.53,87.413Zm15.64,-0l-9.41,-0l-10.13,-70.68l19.54,70.68Zm-157.09,-67.221l69.3,0l0,25.25l-57.34,0l-0.06,-0.005l-0.06,0.005l-11.84,0l-0,-12.011c-0.01,-0.681 -0,-0.988 -0,-1.208c-0.01,-0.425 -0.01,-0.835 -0,-1.209l-0,-10.822Zm6.7,-54.113l5.2,-0l0.01,0.001l0.01,-0.001l49.16,-0l-0,47.95l-54.38,0l-0,-47.95Zm2.52,-6.163l-13.66,0l31.68,-131.595l-18.02,131.595Zm43.13,0l-36.91,0l18.46,-134.772l18.45,134.772Zm19.87,0l-13.65,0l-18,-131.437l31.65,131.437Zm-260.901,75.388l182.521,-0l-0,8.375c-0,1.12 -0.91,2.028 -2.03,2.028l-180.491,0l-0,-10.403Zm110.751,-78.519l30.21,0l0,72.356l-30.21,-0l-0,-72.356Zm35.93,-36.731l-0,30.568l-41.65,-0l-0,-30.568l41.65,-0Zm-39.58,-6.163l-9.42,-0l19.57,-70.771l-10.15,70.771Zm31.29,-0l-25.06,-0l12.53,-87.413l12.53,87.413Zm15.64,-0l-9.41,-0l-10.14,-70.683l19.55,70.683Zm-283.977,-40.182l159.267,-0l0,34.308l-159.267,-0l-0,-34.308Zm50.511,-6.883l29.137,-212.78l29.139,212.78l-58.276,0Zm94.096,0l-29.6,0l-29.034,-212.015l58.634,212.015Zm-71.262,-212.188l-29.056,212.188l-29.621,0l58.677,-212.188Zm-198.791,326.687l-0,93.326l-32.278,-0l-0,-93.326l32.278,-0Zm4.683,-36.731l-0,30.568l-41.645,-0l0,-30.568l41.645,-0Zm-39.573,-6.163l-9.426,0l19.571,-70.77l-10.145,70.77Zm31.287,0l-25.061,0l12.531,-87.413l12.53,87.413Zm15.64,0l-9.413,0l-10.133,-70.683l19.546,70.683Zm-109.955,387.598c-7.141,-12.93 -13.603,-26.22 -19.346,-39.8c7.82,-7.33 14.284,-17.12 19.328,-29.21l0,68.82l0.018,0.19Zm3.202,5.69l47.942,-25.69c5.097,-2.73 11.247,1.18 10.873,6.95c-0.885,13.65 -4.759,31.91 -18.19,41.51c-5.71,4.08 -10.823,9.62 -15.259,16.46c-9.107,-12.52 -17.576,-25.62 -25.366,-39.23Zm86.078,104.53c0.447,1.07 0.902,2.14 1.371,3.18c-0.46,-0.41 -0.913,-0.83 -1.371,-1.24l-0,-1.94Zm64.877,-83.05c-27.439,15.54 -36.905,55.57 -37.295,57.27c-0.381,1.66 0.655,3.31 2.313,3.69c0.232,0.06 0.465,0.08 0.693,0.08c1.404,0 2.672,-0.97 3.001,-2.39c0.09,-0.39 9.267,-39.09 34.325,-53.28c1.672,-0.95 3.236,-2.01 4.708,-3.15c6.622,15.02 13.779,38.88 1.34,53.76c-2.937,3.52 -6.106,7.1 -9.461,10.9c-12.072,13.65 -25.597,28.99 -31.237,45.07c-6.242,-4.56 -12.363,-9.3 -18.359,-14.2c-6.268,-8.93 -11.284,-20.39 -14.905,-34.1l-0,-17.13c5.217,11.72 12.05,20.8 20.422,27.09c0.555,0.42 1.205,0.62 1.85,0.62c1.078,0 2.141,-0.57 2.718,-1.63c0.75,-1.37 0.233,-3.08 -1.016,-4.03c-10.851,-8.23 -18.907,-21.9 -23.974,-40.69l-0,-21.66c4.531,9.56 10.336,17.05 17.366,22.33c0.556,0.41 1.205,0.62 1.849,0.62c1.079,0 2.144,-0.57 2.721,-1.63c0.749,-1.38 0.225,-3.09 -1.025,-4.04c-9.434,-7.16 -16.46,-19.02 -20.911,-35.25l-0,-11.33c3.057,5.41 6.748,9.79 11.075,13.04c0.556,0.42 1.205,0.62 1.849,0.62c1.229,-0 2.438,-0.73 2.931,-2.09c0.465,-1.29 -0.081,-2.7 -1.17,-3.52c-6.53,-4.95 -11.464,-13.07 -14.685,-24.16l-0,-1.37c-0,-1.7 -1.38,-3.08 -3.082,-3.08l-0.206,0.02c-0.097,-0.01 -0.191,-0.02 -0.29,-0.02c-1.401,0 -2.626,0.94 -2.981,2.3c-3.198,12.2 -8.345,21.06 -15.299,26.32c-1.256,0.95 -1.684,2.75 -0.872,4.1c0.958,1.59 3.053,1.97 4.499,0.88c4.805,-3.6 8.832,-8.59 12.067,-14.87l-0,11.4c-0.063,0.15 -0.119,0.3 -0.161,0.45c-4.425,16.9 -11.575,29.19 -21.253,36.55c-1.293,0.98 -1.811,2.77 -0.978,4.17c0.956,1.59 3.055,1.98 4.503,0.89c7.302,-5.49 13.286,-13.34 17.889,-23.45l-0,21.75l-0.047,0.14c-3.915,14.98 -9.748,26.8 -17.344,35.22c-11.79,-12.31 -22.886,-25.37 -33.217,-39.13c4.296,-7.12 9.297,-12.77 14.902,-16.78c17.307,-12.36 20.744,-36 21.029,-51.03c0.108,-5.64 4.686,-10.16 10.327,-10.16l88.833,0c5.879,0 10.421,5.15 9.676,10.98c-1.754,13.73 -7.071,34.82 -23.118,43.91Zm86.332,-30.17l-42.187,-21.63c-1.53,-0.78 -0.972,-3.09 0.747,-3.09c0.189,-0.02 0.377,-0.04 0.567,-0.06l56.754,-10.73l0.067,-0.01l13.41,-2.53c0.498,-0.1 0.965,-0.31 1.36,-0.63l75.924,-61.12l0,67.94c-9.28,-2.95 -16,-4.56 -16.83,-4.75c-0.23,-0.06 -0.47,-0.08 -0.71,-0.08l-15.399,-0l-0.134,0.01c-0.186,0.01 -0.367,0.03 -0.545,0.07l-0.223,0.06c-0.179,0.06 -0.351,0.13 -0.516,0.22l-0.115,0.04l-49.043,28.14l-23.127,8.15Zm202.772,146.72c0.69,-1.31 0.35,-2.97 -0.87,-3.89c-9.51,-7.14 -16.59,-19.05 -21.07,-35.36l-0,-11.34c3.06,5.42 6.75,9.8 11.08,13.05c0.55,0.41 1.2,0.61 1.85,0.61c0.93,0 1.86,-0.42 2.46,-1.23c1.02,-1.36 0.75,-3.29 -0.61,-4.31c-6.58,-4.94 -11.54,-13.08 -14.78,-24.22l-0,-1.38c-0,-1.7 -1.38,-3.08 -3.08,-3.08l-0.24,0.02l-0.26,-0.02c-1.4,-0 -2.62,0.94 -2.98,2.3c-3.2,12.25 -8.38,21.12 -15.37,26.38c-1.36,1.02 -1.64,2.95 -0.61,4.31c1.02,1.36 2.95,1.64 4.31,0.62c4.81,-3.61 8.83,-8.6 12.07,-14.88l0,11.4c-0.07,0.15 -0.12,0.3 -0.16,0.46c-4.25,16.24 -11.03,28.21 -20.15,35.65c-7.32,-1.78 -14.46,-4.04 -21.25,-6.76c-3.93,-1.57 -7.87,-3.01 -11.75,-4.35l-21.48,-158.16c18.62,5.58 54.29,18.32 63.85,36.38c1.85,3.49 3.93,7.89 6.35,12.99c4.76,10.07 10.81,22.83 18.78,36.35l0.1,0.17c11,18.63 25.68,38.69 45.71,55.11c0.18,0.21 0.39,0.38 0.63,0.53c10.03,8.14 21.4,15.35 34.31,21.04c-22.23,7.03 -45.02,11.02 -66.84,11.61Zm42.26,49.96c2.17,4.59 4.64,8.7 7.39,12.3c-2.46,0.7 -4.92,1.37 -7.39,2.02l0,-14.32Zm-6.16,-1.11l-0,17.01c-4.66,1.15 -9.36,2.23 -14.07,3.23c5.59,-5.19 10.29,-11.96 14.07,-20.24Zm-58.04,6.68c3.03,7.28 6.56,13.71 10.59,19.26c-3.52,0.46 -7.05,0.87 -10.59,1.25l-0,-20.51Zm-6.16,21.11c-4.22,0.38 -8.45,0.7 -12.7,0.96c4.91,-6.15 9.15,-13.49 12.7,-21.99l0,21.03Zm0,-77.89c-4.38,-0.53 -8.7,-1.2 -12.91,-2.02c5.09,-5.04 9.4,-11.43 12.91,-19.14l0,21.16Zm6.16,-20.04c4.27,9 9.66,16.16 16.15,21.37c-5.47,-0.01 -10.85,-0.24 -16.15,-0.69l-0,-20.68Zm17.57,95.11c-7.55,-9.42 -13.46,-22.07 -17.57,-37.66l-0,-17.14c5.22,11.72 12.06,20.79 20.43,27.08c0.56,0.42 1.21,0.62 1.85,0.62c0.94,-0 1.86,-0.42 2.47,-1.23c1.02,-1.36 0.74,-3.29 -0.62,-4.31c-9.88,-7.43 -17.45,-19.35 -22.57,-35.47c4.86,0.36 9.78,0.54 14.77,0.54c13.47,0 27.35,-1.3 41.3,-3.81c-3.21,12.24 -8.38,21.1 -15.37,26.35c-1.36,1.02 -1.63,2.95 -0.61,4.32c0.61,0.8 1.53,1.23 2.47,1.23c0.64,-0 1.29,-0.2 1.85,-0.62c4.8,-3.61 8.83,-8.6 12.07,-14.88l-0,11.41c-0.07,0.14 -0.12,0.29 -0.16,0.45c-4.46,17 -11.67,29.34 -21.44,36.67c-1.09,0.82 -1.47,2.22 -1.06,3.45c-5.89,1.12 -11.83,2.12 -17.81,3Zm80.11,-88.42c-11.41,-4.37 -21.65,-9.99 -30.85,-16.46c10.8,-0.04 16.29,-2.68 21.61,-5.23c4.95,-2.38 9.62,-4.63 19.17,-4.63c9.56,-0 14.24,2.25 19.19,4.63c3.04,1.46 6.14,2.95 10.26,3.96c-12.59,6.98 -25.84,12.91 -39.38,17.73Zm143.27,-176.32c-5.89,-0 -10.65,4.77 -10.65,10.65l-0,57.43c-0.7,0.61 -1.39,1.22 -2.07,1.83c-9.7,8.77 -17.22,17.18 -22.43,25.08l-0,-84.34c-0,-5.88 -4.77,-10.65 -10.65,-10.65c-5.88,-0 -10.65,4.77 -10.65,10.65l-0,87.15l-24.5,0l-0,-87.15c-0,-5.88 -4.76,-10.65 -10.65,-10.65c-5.88,-0 -10.65,4.77 -10.65,10.65l0,87.15l-24.49,0l0,-87.15c0,-5.88 -4.77,-10.65 -10.65,-10.65c-5.88,-0 -10.65,4.77 -10.65,10.65l-0,87.15l-24.5,0l-0,-87.15c-0,-5.88 -4.77,-10.65 -10.65,-10.65c-5.88,-0 -10.65,4.77 -10.65,10.65l0,87.15l-24.49,0l-0,-87.15c-0,-5.88 -4.77,-10.65 -10.65,-10.65c-5.89,-0 -10.65,4.77 -10.65,10.65l0,66.31c-2.41,-4.86 -4.57,-9.41 -6.5,-13.49c-2.45,-5.16 -4.56,-9.62 -6.47,-13.24c-2.54,-4.79 -6.59,-9.2 -11.53,-13.22l0,-26.36c0,-5.88 -4.77,-10.65 -10.65,-10.65c-5.88,-0 -10.65,4.77 -10.65,10.65l-0,13.3c-7.98,-3.85 -16.24,-7.05 -23.55,-9.57l0,-42.48l19.169,-0c1.701,-0 3.081,-1.38 3.081,-3.09c0,-1.7 -1.38,-3.08 -3.081,-3.08l-19.169,-0l0,-9.26l343.17,-0l-0,9.26l-28.39,-0c-1.7,-0 -3.08,1.38 -3.08,3.08c-0,1.71 1.38,3.09 3.08,3.09l28.39,-0l-0,63.12c-8.42,5.41 -16.33,10.81 -23.54,16.08l0,-40.45c0,-5.88 -4.77,-10.65 -10.65,-10.65Zm-286.15,-589.448c236.76,-0 429.39,192.622 429.39,429.387c0,52.411 -9.45,102.651 -26.72,149.131c-2.25,1.11 -4.54,2.26 -6.88,3.44c-6.42,-7.16 -11.39,-17.07 -14.82,-29.59l-0,-11.34c3.05,5.42 6.74,9.8 11.07,13.05c0.56,0.42 1.21,0.62 1.85,0.62c1.23,-0 2.44,-0.73 2.93,-2.1c0.47,-1.28 -0.08,-2.69 -1.17,-3.51c-6.53,-4.95 -11.46,-13.07 -14.68,-24.16l-0,-1.38c-0,-1.7 -1.38,-3.08 -3.08,-3.08l-0.26,0.03l-0.24,-0.02c-1.4,0 -2.63,0.94 -2.98,2.3c-3.2,12.21 -8.35,21.06 -15.31,26.32c-1.25,0.95 -1.68,2.75 -0.87,4.09c0.96,1.6 3.06,1.98 4.51,0.89c4.8,-3.61 8.83,-8.6 12.06,-14.87l0,11.4c-0.06,0.15 -0.12,0.3 -0.16,0.45c-4.42,16.9 -11.57,29.19 -21.25,36.54c-1.29,0.99 -1.81,2.78 -0.98,4.17c0.96,1.6 3.05,1.99 4.5,0.9c7.31,-5.49 13.29,-13.35 17.89,-23.45l0,21.76l-0.04,0.13c-0.18,0.7 -0.38,1.37 -0.57,2.05c-13.1,6.99 -25.43,13.95 -36.85,20.79c-4.77,2.85 -10.83,-0.56 -10.83,-6.12l0,-80.42l-0.01,-0.05l0,-89.513c0,-1.703 -1.38,-3.082 -3.08,-3.082c-0.91,0 -1.65,-0.74 -1.65,-1.652l0,-28.915l5.24,0c0.96,0 1.87,-0.451 2.45,-1.216c0.58,-0.766 0.78,-1.76 0.52,-2.687l-32.23,-116.536c-0.36,-1.335 -1.58,-2.26 -2.97,-2.26c-1.38,0 -2.6,0.925 -2.97,2.26l-32.22,116.536c-0.26,0.927 -0.07,1.921 0.52,2.687c0.58,0.766 1.49,1.216 2.45,1.216l5.24,0l0,26.383c0,2.311 -1.87,4.184 -4.18,4.184l-18.79,0l-0,-42.824l6.34,-0c1.7,-0 3.08,-1.38 3.08,-3.082l0,-29.449c0,-1.702 -1.38,-3.082 -3.08,-3.082l-7.81,0c-1.12,0 -2.03,-0.908 -2.03,-2.028l-0,-26.568c-0,-1.702 -1.38,-3.082 -3.08,-3.082l-5.14,0l-0,-47.95l8.89,-0c0.94,-0 1.83,-0.433 2.42,-1.175c0.58,-0.741 0.79,-1.71 0.57,-2.628l-42.2,-175.292c-0.29,-1.217 -1.22,-2.239 -2.46,-2.466c-1.65,-0.307 -3.19,0.737 -3.57,2.307l-42.24,175.451c-0.22,0.918 -0.01,1.887 0.58,2.628c0.58,0.742 1.47,1.175 2.42,1.175l8.88,-0l0,47.95l-3.61,0c-1.71,0 -3.08,1.38 -3.08,3.082l-0,12.03l-29.92,-0c-3.03,-0 -5.48,-2.45 -5.48,-5.473l0,-66.883l2.64,0c1.7,0 3.08,-1.38 3.08,-3.082l0,-33.649l5.24,-0c0.96,-0 1.87,-0.45 2.45,-1.215c0.59,-0.766 0.78,-1.76 0.52,-2.688l-32.23,-116.536c-0.36,-1.335 -1.58,-2.26 -2.97,-2.26c-1.38,-0 -2.6,0.925 -2.97,2.26l-32.22,116.536c-0.26,0.928 -0.07,1.922 0.52,2.688c0.58,0.765 1.49,1.215 2.45,1.215l5.24,-0l0,33.649c0,1.702 1.38,3.082 3.08,3.082l2.63,0l0,66.883c0,3.023 -2.45,5.473 -5.47,5.473l-12.57,-0l-0,-19.316l9.34,-0c1.06,-0 2.05,-0.552 2.61,-1.458c0.57,-0.906 0.62,-2.038 0.15,-2.993l-26.32,-53.042c-0.52,-1.049 -1.59,-1.712 -2.76,-1.712l-51.921,-0l-0,-36.44l14.771,0c1.7,0 3.08,-1.38 3.08,-3.082l0,-40.471c0,-1.702 -1.38,-3.082 -3.08,-3.082l-4.25,0c-4.08,0 -7.661,-2.723 -8.75,-6.657l-46.62,-168.595c16.47,-1.924 33.28,-2.912 50.02,-2.912Zm382.1,595.948c4.02,-2.11 8.19,-4.27 12.46,-6.45c0.93,0.86 1.89,1.68 2.87,2.45c-2.81,6.84 -5.79,13.58 -8.93,20.23c-2.45,-4.83 -4.59,-10.27 -6.4,-16.23Zm-1.13,31.39l-0,-16.68c1.31,2.95 2.72,5.74 4.23,8.34c-1.38,2.8 -2.79,5.58 -4.23,8.34Zm-0,-37.76l-0,-19.25c2.62,5.55 5.68,10.39 9.16,14.52c-3.13,1.59 -6.2,3.18 -9.16,4.73Zm20.35,9.34c2.38,-5.62 4.61,-11.29 6.74,-16.99c0.06,-0.13 0.11,-0.26 0.15,-0.4c18.13,-48.56 27.34,-99.648 27.34,-152.141c0,-58.796 -11.52,-115.836 -34.23,-169.535c-21.94,-51.865 -53.34,-98.444 -93.34,-138.444c-40,-40 -86.58,-71.405 -138.44,-93.342c-53.7,-22.713 -110.74,-34.229 -169.54,-34.229c-17.301,0 -34.67,1.039 -51.686,3.065l-18.354,-66.373l0,-52.992c6.446,-0.753 32.75,-3.285 35.91,5.148c3.08,8.217 26.579,8.267 34.64,8.037c1.5,-0.043 2.7,-1.279 2.7,-2.785l-0,-28.867c-0,-1.604 -1.35,-2.88 -2.95,-2.782c-7.16,0.441 -25.04,0.81 -27.59,-6.264c-2.2,-6.122 -35.43,-4.721 -42.71,-4.34l0,-2.654c1.896,-1.078 3.19,-3.094 3.19,-5.431c0,-3.464 -2.808,-6.272 -6.272,-6.272c-3.463,0 -6.272,2.808 -6.272,6.272c0,2.337 1.294,4.353 3.191,5.431l-0,87.499l-20.497,74.12c-94.443,21.411 -180.189,74.763 -241.608,150.407c-30.834,37.977 -54.864,80.456 -71.421,126.256c-17.133,47.396 -25.821,97.215 -25.821,148.075c0,57.647 11.463,114.681 33.409,167.461c0.072,0.27 0.175,0.53 0.322,0.78c6.429,15.37 13.742,30.39 21.931,44.95l0.001,-0l0.031,0.05c9.051,16.09 19.109,31.55 30.075,46.3l0.036,0.05c11.416,15.36 23.821,29.94 37.125,43.65l0.024,0.03l0.024,0.02c4.821,4.97 9.762,9.82 14.814,14.56l0.064,0.06c1.845,1.73 3.703,3.44 5.578,5.14l0.057,0.05c12.136,10.98 24.897,21.28 38.219,30.86l0.09,0.06c9.916,7.12 20.138,13.84 30.653,20.13c33.759,20.17 70.022,35.56 107.731,45.89c0.341,0.16 0.696,0.26 1.056,0.29c3.319,0.9 6.649,1.75 9.989,2.57c0.34,0.16 0.713,0.25 1.106,0.28c4.756,1.16 9.532,2.23 14.327,3.23c0.315,0.12 0.651,0.2 1.006,0.21c14.112,2.9 28.386,5.1 42.772,6.59c0.21,0.05 0.43,0.07 0.65,0.07c5.31,0.54 10.63,0.99 15.97,1.33l0.22,0.03l0.06,-0.01c5.84,0.38 11.7,0.63 17.57,0.77l0.089,0.01l0.051,0c3.5,0.08 7,0.14 10.5,0.14c6.39,0 12.76,-0.16 19.11,-0.44l0.03,0.01l0.08,-0.01c14.31,-0.62 28.5,-1.93 42.56,-3.92l0.19,-0.02c20.74,-2.95 41.18,-7.39 61.24,-13.31l0.02,-0.01c13.99,-4.12 27.8,-8.97 41.4,-14.53c0.19,-0.05 0.38,-0.11 0.56,-0.2l0.11,-0.07c1.41,-0.58 2.83,-1.14 4.24,-1.73c51.86,-21.94 98.44,-53.34 138.44,-93.34c34.42,-34.42 62.45,-73.72 83.59,-117.06l0.02,-0.05c3.42,-7.01 6.68,-14.12 9.73,-21.34Z" style="fill-rule:nonzero;"/><path d="M846.458,855.126c0,-8.294 -6.725,-15.019 -15.02,-15.019c-8.295,0 -15.019,6.725 -15.019,15.019l0,21.074l30.039,-0l0,-21.074Z" style="fill-rule:nonzero;"/><path d="M1250.26,761.675c-8.3,0 -15.02,6.724 -15.02,15.02l-0,21.073l30.04,-0l0,-21.073c0,-8.296 -6.73,-15.02 -15.02,-15.02Z" style="fill-rule:nonzero;"/><path d="M1126.84,1035.58l-48.76,-0c-1.7,-0 -3.08,1.38 -3.08,3.08c-0,1.71 1.38,3.09 3.08,3.09l48.76,0c1.7,0 3.08,-1.38 3.08,-3.09c0,-1.7 -1.38,-3.08 -3.08,-3.08Z" style="fill-rule:nonzero;"/><path d="M1212.99,1035.58l-53.49,-0c-1.71,-0 -3.08,1.38 -3.08,3.08c0,1.71 1.37,3.09 3.08,3.09l53.49,0c1.7,0 3.08,-1.38 3.08,-3.09c-0,-1.7 -1.38,-3.08 -3.08,-3.08Z" style="fill-rule:nonzero;"/><path d="M1310.97,1035.58l-62.96,-0c-1.7,-0 -3.08,1.38 -3.08,3.08c0,1.71 1.38,3.09 3.08,3.09l62.96,0c1.7,0 3.08,-1.38 3.08,-3.09c0,-1.7 -1.38,-3.08 -3.08,-3.08Z" style="fill-rule:nonzero;"/><path d="M1178.71,893.422c-4.38,-0 -7.92,3.549 -7.92,7.928l0,25.463l15.85,-0l0,-25.463c0,-4.379 -3.55,-7.928 -7.93,-7.928Z" style="fill-rule:nonzero;"/><path d="M1148.89,893.422c-4.38,-0 -7.93,3.549 -7.93,7.928l-0,25.463l15.86,-0l-0,-25.463c-0,-4.379 -3.55,-7.928 -7.93,-7.928Z" style="fill-rule:nonzero;"/><path d="M1119.07,893.422c-4.38,-0 -7.93,3.549 -7.93,7.928l0,25.463l15.86,-0l0,-25.463c0,-4.379 -3.55,-7.928 -7.93,-7.928Z" style="fill-rule:nonzero;"/><path d="M1089.25,893.422c-4.38,-0 -7.93,3.549 -7.93,7.928l-0,25.463l15.86,-0l0,-25.463c0,-4.379 -3.55,-7.928 -7.93,-7.928Z" style="fill-rule:nonzero;"/><path d="M1059.43,893.422c-4.38,-0 -7.93,3.549 -7.93,7.928l-0,25.463l15.86,-0l-0,-25.463c-0,-4.379 -3.55,-7.928 -7.93,-7.928Z" style="fill-rule:nonzero;"/><path d="M1178.71,943.396c-4.38,-0 -7.92,3.549 -7.92,7.928l0,25.463l15.85,-0l0,-25.463c0,-4.379 -3.55,-7.928 -7.93,-7.928Z" style="fill-rule:nonzero;"/><path d="M1148.89,943.396c-4.38,-0 -7.93,3.549 -7.93,7.928l-0,25.463l15.86,-0l-0,-25.463c-0,-4.379 -3.55,-7.928 -7.93,-7.928Z" style="fill-rule:nonzero;"/><path d="M1119.07,943.396c-4.38,-0 -7.93,3.549 -7.93,7.928l0,25.463l15.86,-0l0,-25.463c0,-4.379 -3.55,-7.928 -7.93,-7.928Z" style="fill-rule:nonzero;"/><path d="M1089.25,943.396c-4.38,-0 -7.93,3.549 -7.93,7.928l-0,25.463l15.86,-0l0,-25.463c0,-4.379 -3.55,-7.928 -7.93,-7.928Z" style="fill-rule:nonzero;"/><path d="M1059.43,943.396c-4.38,-0 -7.93,3.549 -7.93,7.928l-0,25.463l15.86,-0l-0,-25.463c-0,-4.379 -3.55,-7.928 -7.93,-7.928Z" style="fill-rule:nonzero;"/><path d="M940.28,725.905c0,-4.902 -3.973,-8.876 -8.875,-8.876c-4.902,0 -8.875,3.974 -8.875,8.876l0,18.819l17.75,-0l0,-18.819Z" style="fill-rule:nonzero;"/><path d="M1032.23,725.905c-0,-4.902 -3.98,-8.876 -8.88,-8.876c-4.9,0 -8.87,3.974 -8.87,8.876l-0,18.819l17.75,-0l-0,-18.819Z" style="fill-rule:nonzero;"/><path d="M986.253,725.905c-0,-4.902 -3.973,-8.876 -8.875,-8.876c-4.901,0 -8.875,3.974 -8.875,8.876l-0,18.819l17.75,-0l-0,-18.819Z" style="fill-rule:nonzero;"/><path d="M987.673,821.564c-0,-5.294 -4.291,-9.585 -9.585,-9.585c-5.294,0 -9.585,4.291 -9.585,9.585l-0,31.358l19.17,-0l-0,-31.358Z" style="fill-rule:nonzero;"/><path d="M987.673,898.902c-0,-5.293 -4.291,-9.585 -9.585,-9.585c-5.294,0 -9.585,4.292 -9.585,9.585l-0,31.358l19.17,0l-0,-31.358Z" style="fill-rule:nonzero;"/><path d="M987.673,976.241c-0,-5.294 -4.291,-9.585 -9.585,-9.585c-5.294,0 -9.585,4.291 -9.585,9.585l-0,31.359l19.17,-0l-0,-31.359Z" style="fill-rule:nonzero;"/><path d="M914.642,1179.92c1.702,-0 3.081,-1.38 3.081,-3.08l0,-13.71c0,-1.71 -1.379,-3.09 -3.081,-3.09c-1.703,-0 -3.082,1.38 -3.082,3.09l-0,13.71c-0,1.7 1.379,3.08 3.082,3.08Z" style="fill-rule:nonzero;"/><path d="M1524.51,910.118l-5,0c0,129.522 -52.49,246.762 -137.37,331.642c-84.88,84.88 -202.12,137.37 -331.64,137.37c-129.523,0 -246.761,-52.49 -331.644,-137.37c-84.879,-84.88 -137.37,-202.12 -137.371,-331.642c0.001,-129.523 52.492,-246.761 137.371,-331.644c84.883,-84.879 202.121,-137.37 331.644,-137.371c129.52,0.001 246.76,52.492 331.64,137.371c84.88,84.883 137.37,202.12 137.37,331.644l5,0c0,-261.793 -212.22,-474.014 -474.01,-474.015c-261.792,0.001 -474.014,212.222 -474.015,474.015c0.001,261.792 212.223,474.012 474.015,474.012c261.79,0 474.01,-212.22 474.01,-474.012Z" style="fill-rule:nonzero;"/></g></svg>